<svg width="58" height="40" fill="none" xmlns="http://www.w3.org/2000/svg"><path d="m8.292 37.384-.162-.473-.182.063-.093.168.437.242Zm4.5-8.122.205-.455-.016-.007-.017-.007-.173.47ZM33.871 1v.5V1Zm21.514 22.445.427.26.008-.012.006-.012-.44-.236Zm-30.48 9.066-.013-.5a.5.5 0 0 0-.215.056l.229.444ZM2.036 20.491l.456-.205-.456.205Zm6.42 17.366c.787-.27 1.7-.838 2.56-1.537.864-.704 1.707-1.568 2.347-2.462.63-.882 1.104-1.852 1.142-2.758a2.272 2.272 0 0 0-.335-1.33c-.257-.406-.652-.728-1.172-.963l-.411.911c.379.172.605.377.738.587.132.209.193.457.18.754-.025.617-.367 1.393-.956 2.217-.58.811-1.358 1.612-2.165 2.268-.812.661-1.62 1.15-2.253 1.367l.325.946ZM33.872 1.5c12.718-.01 18.671 4.072 21.124 8.713 2.477 4.688 1.485 10.125-.05 12.996l.881.472c1.652-3.089 2.721-8.885.053-13.935C53.187 4.649 46.79.489 33.872.5v1ZM54.96 23.185c-1.029 1.69-3.846 3.777-8.822 5.507-4.948 1.72-11.955 3.06-21.244 3.32l.028.999c9.366-.261 16.478-1.613 21.545-3.375 5.04-1.752 8.134-3.938 9.347-5.93l-.854-.52Zm-30.281 8.882C16.6 36.227 12.206 37.954 10 38.387c-.547.108-.928.13-1.18.102-.256-.027-.316-.095-.32-.1-.001-.002-.007-.008-.01-.03a.418.418 0 0 1 .004-.14c.024-.146.1-.346.236-.593l-.875-.484c-.163.294-.297.608-.348.914-.05.309-.024.668.219.966.237.29.598.42.988.462.393.042.884.002 1.48-.115 2.363-.465 6.875-2.258 14.942-6.413l-.458-.89ZM12.79 29.262c.173-.469.174-.469.174-.468h-.001l-.004-.002a3.825 3.825 0 0 1-.08-.03 23.477 23.477 0 0 1-1.194-.513 28.119 28.119 0 0 1-3.033-1.636c-2.337-1.455-4.924-3.582-6.162-6.327l-.912.411c1.362 3.017 4.153 5.276 6.545 6.765a29.135 29.135 0 0 0 3.143 1.694 24.727 24.727 0 0 0 1.324.565l.02.008.005.002h.002l.173-.469Zm-10.3-8.976c-.867-1.92-1.225-4.03-.832-6.113.391-2.077 1.536-4.162 3.741-6.03C9.83 4.386 18.542 1.512 33.872 1.5v-1C18.468.513 9.459 3.391 4.754 7.38 2.39 9.381 1.114 11.664.676 13.987c-.437 2.317-.032 4.636.903 6.71l.912-.412Z" fill="#3DAD85"/><path d="M14.363 10.5h29.91l-29.91 8.867 29.91 3.166" stroke="#3DAD85"/></svg>